<svg id="Layer_1" data-name="Layer 1" xmlns="http://www.w3.org/2000/svg" viewBox="0 0 1000 1000"><defs><style>.cls-1{fill:#716e6e;}.cls-2{fill:#ffc222;}</style></defs><path class="cls-1" d="M801.37,489.7C728,489.53,668,444.2,643.57,370.53c-19.85-59.94,6.94-136.53,61.71-176.22,3.57-2.59,7.36-4.9,11.17-7.14,14.64-8.58,30.06-10.55,39.58,5.39s4.1,30.6-12.95,39.73c-37.26,19.94-53.18,52.21-54.51,93.25C685.75,413.32,788.32,468.83,853,425c14-9.48,30.27-11.31,39.73,4.42C903.12,446.7,895.46,462,878,471.24A155.64,155.64,0,0,1,801.37,489.7Z"/><path class="cls-1" d="M358.64,323c7.08,98.17-102,192.05-218.31,151.87-20-6.89-35.21-17.14-26.56-40,8.76-23.21,27-16.88,44.46-9.42,53.4,22.74,115.66-1.79,142-58.55,20.83-45,8.76-112-41.86-138.91-16.31-8.67-29.49-20.46-17.19-39.88,12.53-19.78,30.74-15.06,46.24-3.57C333.2,218.54,361.47,262.17,358.64,323Z"/><path class="cls-1" d="M811.45,516c20.17-.93,41.43,5.18,62.2,13.16,19.64,7.54,29.24,22.85,20.41,42-9.4,20.36-26.39,15.36-42.88,6.14C816.31,557.74,767,564.48,734.7,592.37c-34.6,29.87-49.26,76.61-37.1,114.36,8.39,26,20.74,49,44.84,63.26,18.38,10.86,22.37,26.93,11.61,42.3-11.29,16.14-28.09,10.8-42.33.39C652.46,769.35,629.2,692.1,653.91,621,675.13,559.9,740.54,515.61,811.45,516Z"/><path class="cls-1" d="M787.59,282c30.52-.33,56.13,24.59,56.23,54.69.09,29.69-26.09,55.64-55.92,55.44-27.76-.18-54.73-26.11-55.94-53.78C730.73,310.28,758.37,282.28,787.59,282Z"/><path class="cls-1" d="M213.52,721.26c-29.91.35-56.51-25.71-56.53-55.38,0-28.79,25.12-53.92,54.39-54.39a54.38,54.38,0,0,1,55.71,54.92C267.07,695.86,242.6,720.91,213.52,721.26Z"/><path class="cls-1" d="M263.62,330.82c.14,31.34-24.46,56.06-55.15,55.4-29.34-.64-53.27-25.28-53.35-55-.09-31.33,24.39-55.54,55.58-55C240.76,276.84,263.48,300.25,263.62,330.82Z"/><path class="cls-1" d="M741.3,668.05c-5.38-27.07,24.62-53.94,52.7-54.19,30.2-.27,54.61,24.86,54.38,56-.23,30.3-23.2,53.33-53.56,53.7C763.62,723.92,741.14,700.61,741.3,668.05Z"/><path class="cls-2" d="M553.13,165.87c.14,31.35-24.47,56.06-55.16,55.4-29.34-.63-53.26-25.28-53.34-55-.09-31.34,24.39-55.55,55.58-55C530.26,111.89,553,135.31,553.13,165.87Z"/><path class="cls-2" d="M505.35,888.67c-29.91.35-56.51-25.71-56.53-55.38,0-28.79,25.12-53.92,54.39-54.39a54.38,54.38,0,0,1,55.71,54.92C558.9,863.27,534.43,888.33,505.35,888.67Z"/><path class="cls-2" d="M643,780c11.66,17.44,17.85,39.54,22.18,62.16,4.09,21.39-3.9,37.9-25.1,40-22.57,2.24-27.42-15.46-28.37-34.93-2-41.17-34.36-81.51-75.74-95.7-44.32-15.2-92.4-3.89-118.31,26.59-17.87,21-31,44-30.25,72.81.56,22-11.11,33.92-30.12,32.36-20-1.64-24.41-19.36-23.13-37.44,5.34-75.25,59.24-136.18,133.7-151.25C531.83,681.67,605.15,716.76,643,780Z"/><path class="cls-2" d="M638.08,223.69c11.42-17.07,17.44-38.72,21.63-60.9,4-21-4-37.18-24.83-39.32-22.21-2.27-26.93,15.08-27.8,34.17-1.85,40.37-33.56,79.84-74.24,93.63-43.56,14.77-90.91,3.53-116.51-26.45-17.65-20.66-30.64-43.22-30-71.51.49-21.57-11-33.3-29.74-31.83-19.64,1.54-24,18.91-22.65,36.65C339.44,232,392.67,291.88,466,306.89,529,319.78,601,285.6,638.08,223.69Z"/><path class="cls-1" d="M188.46,513.14c-20.16-.93-41.43,5.19-62.2,13.17-19.64,7.54-29.23,22.85-20.4,42,9.39,20.36,26.38,15.36,42.87,6.13,34.87-19.51,84.19-12.77,116.49,15.12,34.6,29.88,49.25,76.61,37.09,114.37-8.38,26-20.73,49-44.83,63.26-18.39,10.85-22.38,26.93-11.62,42.3,11.29,16.14,28.09,10.8,42.33.39,59.26-43.33,82.53-120.59,57.82-191.7C324.78,557.07,259.37,512.77,188.46,513.14Z"/></svg>