<svg id="Layer_1" data-name="Layer 1" xmlns="http://www.w3.org/2000/svg" viewBox="0 0 1000 1000"><defs><style>.cls-1{fill:#231f20;}</style></defs><path class="cls-1" d="M813.22,489.3c-76.27-.18-138.65-47.29-164-123.86-20.62-62.29,7.22-141.89,64.14-183.15,3.71-2.69,7.65-5.09,11.61-7.41,15.21-8.92,31.23-11,41.13,5.6s4.27,31.8-13.46,41.29C713.9,242.5,697.36,276,696,318.69c-2.94,91.22,103.66,148.91,170.89,103.4,14.55-9.85,31.47-11.75,41.3,4.59,10.79,17.93,2.83,33.87-15.3,43.42A161.75,161.75,0,0,1,813.22,489.3Z"/><path class="cls-1" d="M353.09,316.09c7.35,102-106,199.59-226.89,157.84-20.74-7.16-36.6-17.82-27.61-41.61,9.11-24.12,28-17.54,46.21-9.79,55.49,23.64,120.2-1.86,147.52-60.85,21.66-46.75,9.11-116.39-43.5-144.37-16.95-9-30.64-21.26-17.86-41.44,13-20.57,31.94-15.66,48-3.71C326.65,207.48,356,252.82,353.09,316.09Z"/><path class="cls-1" d="M823.69,516.6c21-1,43.06,5.39,64.64,13.68,20.42,7.84,30.39,23.75,21.21,43.63-9.76,21.16-27.42,16-44.55,6.37C828.74,560,777.49,567,743.92,596c-36,31-51.19,79.62-38.55,118.86,8.71,27,21.55,50.95,46.6,65.74,19.1,11.29,23.25,28,12.07,44-11.74,16.77-29.2,11.22-44,.4-61.58-45-85.77-125.32-60.08-199.23C682,562.26,750,516.22,823.69,516.6Z"/><path class="cls-1" d="M798.89,273.4c31.72-.34,58.34,25.55,58.44,56.84.1,30.85-27.11,57.83-58.12,57.62-28.85-.19-56.87-27.14-58.14-55.9C739.79,302.82,768.52,273.72,798.89,273.4Z"/><path class="cls-1" d="M202.26,730c-31.08.37-58.73-26.72-58.75-57.55,0-29.92,26.11-56,56.52-56.53A56.52,56.52,0,0,1,257.94,673C257.92,703.56,232.48,729.6,202.26,730Z"/><path class="cls-1" d="M254.33,324.17c.15,32.58-25.43,58.27-57.32,57.58-30.49-.66-55.36-26.28-55.45-57.12-.09-32.57,25.35-57.73,57.78-57.14C230.57,268.06,254.18,292.4,254.33,324.17Z"/><path class="cls-1" d="M750.79,674.66c-5.6-28.14,25.58-56.07,54.76-56.33,31.39-.28,56.77,25.85,56.52,58.2C861.83,708,838,732,806.41,732.33,774,732.72,750.61,708.49,750.79,674.66Z"/><path class="cls-1" d="M555.22,152.74c.15,32.58-25.43,58.27-57.33,57.58-30.49-.66-55.35-26.28-55.44-57.12-.09-32.57,25.35-57.73,57.77-57.14C531.45,96.63,555.07,121,555.22,152.74Z"/><path class="cls-1" d="M505.56,903.94c-31.08.37-58.73-26.72-58.75-57.55,0-29.92,26.1-56,56.52-56.53a56.52,56.52,0,0,1,57.91,57.08C561.21,877.55,535.78,903.59,505.56,903.94Z"/><path class="cls-1" d="M648.64,791c12.12,18.12,18.56,41.09,23.05,64.6,4.25,22.23-4.05,39.39-26.09,41.58-23.45,2.33-28.49-16.07-29.47-36.3-2.09-42.79-35.72-84.71-78.72-99.46-46.06-15.8-96-4-123,27.63-18.57,21.84-32.21,45.7-31.44,75.67.59,22.86-11.54,35.26-31.3,33.64-20.74-1.71-25.37-20.12-24-38.92,5.55-78.21,61.57-141.53,139-157.19C533.08,688.81,609.28,725.28,648.64,791Z"/><path class="cls-1" d="M643.51,212.83c11.86-17.74,18.13-40.25,22.48-63.29,4.11-21.79-4.12-38.65-25.81-40.87-23.08-2.36-28,15.68-28.89,35.52-1.92,42-34.88,83-77.15,97.3-45.29,15.36-94.5,3.67-121.1-27.48-18.34-21.48-31.84-44.92-31.18-74.32.51-22.42-11.46-34.62-30.91-33.09-20.41,1.6-24.9,19.65-23.53,38.09,5.71,76.73,61,139,137.23,154.61C530.1,312.7,605,277.17,643.51,212.83Z"/><path class="cls-1" d="M176.22,513.66c-21-1-43.06,5.39-64.64,13.68C91.16,535.18,81.19,551.09,90.37,571c9.76,21.16,27.42,16,44.55,6.38,36.25-20.28,87.5-13.27,121.07,15.71,36,31.05,51.19,79.62,38.55,118.86-8.71,27.06-21.55,51-46.6,65.75-19.1,11.28-23.25,28-12.07,44,11.74,16.78,29.2,11.22,44,.4C341.46,777,365.64,696.7,340,622.79,317.89,559.31,249.92,513.27,176.22,513.66Z"/></svg>