<svg id="Layer_1" data-name="Layer 1" xmlns="http://www.w3.org/2000/svg" viewBox="0 0 1000 1000"><defs><style>.cls-1{fill:#fff;}</style></defs><path class="cls-1" d="M816.36,489.19c-77-.18-140-47.76-165.65-125.1-20.83-62.92,7.29-143.31,64.78-185,3.75-2.72,7.73-5.14,11.73-7.49,15.36-9,31.55-11.08,41.54,5.66s4.31,32.12-13.59,41.7c-39.12,20.94-55.83,54.81-57.22,97.9C695,409,802.66,467.28,870.57,421.31c14.69-9.95,31.78-11.87,41.71,4.64,10.89,18.1,2.85,34.21-15.45,43.85A163.49,163.49,0,0,1,816.36,489.19Z"/><path class="cls-1" d="M351.61,314.24C359,417.29,244.55,515.84,122.44,473.67c-20.94-7.24-37-18-27.88-42,9.2-24.36,28.3-17.72,46.67-9.89,56.05,23.88,121.41-1.88,149-61.46,21.87-47.22,9.2-117.56-43.94-145.82-17.12-9.1-31-21.47-18-41.86,13.15-20.77,32.26-15.82,48.54-3.74C324.91,204.54,354.58,250.34,351.61,314.24Z"/><path class="cls-1" d="M826.94,516.77c21.17-1,43.49,5.44,65.29,13.82,20.62,7.92,30.69,24,21.43,44.06-9.87,21.37-27.7,16.12-45,6.44C832,560.61,780.27,567.69,746.37,597c-36.32,31.36-51.7,80.42-38.94,120,8.8,27.33,21.77,51.47,47.07,66.41,19.29,11.4,23.48,28.27,12.19,44.41-11.86,16.94-29.49,11.33-44.44.4-62.2-45.48-86.63-126.58-60.69-201.23C683.84,562.88,752.5,516.38,826.94,516.77Z"/><path class="cls-1" d="M801.89,271.12c32-.34,58.93,25.81,59,57.42.1,31.16-27.39,58.41-58.7,58.2-29.14-.2-57.45-27.42-58.73-56.46C742.2,300.84,771.22,271.45,801.89,271.12Z"/><path class="cls-1" d="M199.27,732.26c-31.39.37-59.32-27-59.34-58.13,0-30.22,26.37-56.61,57.09-57.09a57.08,57.08,0,0,1,58.49,57.65C255.49,705.6,229.8,731.9,199.27,732.26Z"/><path class="cls-1" d="M251.86,322.4c.16,32.91-25.68,58.86-57.89,58.16-30.8-.67-55.92-26.54-56-57.69-.09-32.89,25.61-58.31,58.36-57.71C227.86,265.74,251.72,290.32,251.86,322.4Z"/><path class="cls-1" d="M753.31,676.41c-5.65-28.42,25.84-56.63,55.31-56.89,31.71-.28,57.33,26.1,57.09,58.78-.24,31.81-24.35,56-56.22,56.36C776.73,735.06,753.13,710.59,753.31,676.41Z"/><path class="cls-1" d="M555.77,149.25c.15,32.91-25.68,58.86-57.9,58.16-30.8-.67-55.91-26.54-56-57.69-.09-32.89,25.61-58.31,58.35-57.71C531.77,92.59,555.62,117.17,555.77,149.25Z"/><path class="cls-1" d="M505.61,908c-31.39.37-59.31-27-59.33-58.13,0-30.22,26.36-56.61,57.09-57.1a57.09,57.09,0,0,1,58.48,57.65C561.83,881.34,536.14,907.64,505.61,908Z"/><path class="cls-1" d="M650.13,793.93c12.24,18.31,18.74,41.5,23.29,65.25,4.29,22.45-4.1,39.78-26.36,42-23.68,2.35-28.77-16.24-29.77-36.67-2.1-43.21-36.07-85.56-79.51-100.46-46.52-16-97-4.08-124.2,27.91-18.75,22.06-32.53,46.16-31.75,76.43.59,23.09-11.66,35.61-31.62,34-20.95-1.71-25.63-20.32-24.28-39.3,5.61-79,62.19-142.95,140.35-158.77C533.41,690.71,610.38,727.54,650.13,793.93Z"/><path class="cls-1" d="M645,210c12-17.92,18.31-40.65,22.7-63.93,4.16-22-4.15-39-26.06-41.27-23.32-2.39-28.27,15.83-29.18,35.86-1.94,42.38-35.24,83.81-77.93,98.29-45.74,15.51-95.44,3.7-122.31-27.76-18.53-21.7-32.16-45.38-31.49-75.07.51-22.65-11.59-35-31.22-33.42-20.62,1.62-25.16,19.85-23.77,38.47,5.76,77.5,61.64,140.41,138.61,156.17C530.41,310.82,606,274.94,645,210Z"/><path class="cls-1" d="M173,513.8c-21.17-1-43.49,5.44-65.29,13.81-20.62,7.92-30.7,24-21.43,44.07,9.87,21.37,27.7,16.12,45,6.43,36.61-20.48,88.38-13.4,122.28,15.88,36.32,31.36,51.7,80.42,38.94,120-8.8,27.33-21.77,51.47-47.07,66.41-19.29,11.39-23.48,28.26-12.19,44.4,11.86,16.94,29.49,11.34,44.44.41,62.2-45.48,86.63-126.58,60.69-201.23C316.06,559.91,247.41,513.41,173,513.8Z"/></svg>