<svg id="Layer_1" data-name="Layer 1" xmlns="http://www.w3.org/2000/svg" viewBox="0 0 1000 380.16"><defs><style>.cls-1{fill:#716e6e;}.cls-2{fill:#ffc222;}</style></defs><path class="cls-1" d="M285,182.7c-20.44,0-37.16-12.67-44-33.2-5.53-16.7,1.94-38,17.19-49.09,1-.72,2.06-1.37,3.12-2,4.07-2.39,8.37-2.94,11,1.5s1.15,8.53-3.61,11.07c-10.38,5.56-14.81,14.54-15.18,26-.79,24.45,27.79,39.92,45.81,27.72,3.9-2.64,8.43-3.15,11.07,1.23,2.89,4.8.76,9.08-4.1,11.64A43.48,43.48,0,0,1,285,182.7Z"/><path class="cls-1" d="M161.71,136.27c2,27.35-28.42,53.5-60.82,42.31-5.56-1.92-9.81-4.78-7.4-11.15s7.51-4.7,12.39-2.63c14.87,6.34,32.22-.5,39.54-16.31,5.8-12.53,2.44-31.2-11.66-38.7-4.54-2.41-8.22-5.69-4.79-11.1s8.56-4.2,12.88-1C154.62,107.16,162.49,119.31,161.71,136.27Z"/><path class="cls-1" d="M287.85,190c5.62-.26,11.54,1.44,17.33,3.67,5.47,2.1,8.14,6.36,5.68,11.69-2.61,5.67-7.35,4.28-11.94,1.71-9.71-5.44-23.45-3.56-32.45,4.21-9.64,8.32-13.72,21.34-10.33,31.86,2.33,7.25,5.77,13.66,12.49,17.62,5.12,3,6.23,7.51,3.23,11.79-3.14,4.5-7.82,3-11.79.11-16.51-12.07-23-33.6-16.11-53.41C249.88,202.26,268.1,189.92,287.85,190Z"/><path class="cls-1" d="M281.2,124.83a15.53,15.53,0,0,1,15.67,15.24,15.82,15.82,0,0,1-15.58,15.44c-7.73,0-15.25-7.27-15.58-15S273.06,124.92,281.2,124.83Z"/><path class="cls-1" d="M121.28,247.21c-8.33.1-15.74-7.16-15.75-15.43,0-8,7-15,15.15-15.15a15.14,15.14,0,0,1,15.52,15.3A15.42,15.42,0,0,1,121.28,247.21Z"/><path class="cls-1" d="M135.24,138.44a15.09,15.09,0,0,1-15.37,15.43A15.37,15.37,0,0,1,105,138.56a15,15,0,0,1,15.48-15.31A14.86,14.86,0,0,1,135.24,138.44Z"/><path class="cls-1" d="M268.31,232.39c-1.5-7.55,6.86-15,14.68-15.1a15.22,15.22,0,0,1,15.15,15.6,14.8,14.8,0,0,1-14.92,15C274.53,248,268.26,241.46,268.31,232.39Z"/><path class="cls-1" d="M411,139.6v15H392.22v61h-18v-61H355.25v-15Z"/><path class="cls-1" d="M460.87,215.6H444.78a40,40,0,0,1-.78-8.79q-4.23,6-8.43,8a22.18,22.18,0,0,1-9.53,2q-7.89,0-12.76-4.28T408.42,201a17.77,17.77,0,0,1,2.83-9.74q2.83-4.46,9.12-7t22.9-3.76v-3.23q0-8.18-8.16-8.18-8.72,0-9.71,8.18l-15.31-1.45q1.5-9.57,9.07-13.58a36.14,36.14,0,0,1,17.15-4,42.16,42.16,0,0,1,10.8,1.34,17.93,17.93,0,0,1,7.91,4,14,14,0,0,1,3.84,5.65q1,3,1,10.38v25.5Q459.86,212.43,460.87,215.6Zm-17.6-26.94q-17.37,1.72-17.37,10.52a7.58,7.58,0,0,0,1.83,5.09,6.49,6.49,0,0,0,5.22,2.15,9.14,9.14,0,0,0,7.35-3.65,13.77,13.77,0,0,0,3-9Z"/><path class="cls-1" d="M473.56,215.6v-76h16.59v76Z"/><path class="cls-1" d="M552.85,215.6h-16.1a40.07,40.07,0,0,1-.77-8.79q-4.23,6-8.43,8a22.18,22.18,0,0,1-9.53,2q-7.89,0-12.76-4.28T500.4,201a17.77,17.77,0,0,1,2.83-9.74q2.83-4.46,9.12-7t22.9-3.76v-3.23q0-8.18-8.16-8.18-8.72,0-9.71,8.18l-15.31-1.45q1.5-9.57,9.07-13.58a36.14,36.14,0,0,1,17.15-4,42.27,42.27,0,0,1,10.8,1.34,17.93,17.93,0,0,1,7.91,4,14,14,0,0,1,3.84,5.65q1,3,1,10.38v25.5Q551.84,212.43,552.85,215.6Zm-17.6-26.94q-17.37,1.72-17.37,10.52a7.58,7.58,0,0,0,1.83,5.09,6.49,6.49,0,0,0,5.22,2.15,9.14,9.14,0,0,0,7.35-3.65,13.77,13.77,0,0,0,3-9Z"/><path class="cls-1" d="M614.42,215.6H597.83V184a46.2,46.2,0,0,0-.44-7.85,6.38,6.38,0,0,0-2.17-3.59,6.49,6.49,0,0,0-4.35-1.47q-8.75,0-8.74,12.91V215.6H565.54V159.37H581v9.52q3.84-6.79,7.57-8.74a17.19,17.19,0,0,1,8.08-2q8,0,12.91,4.32t4.9,16.95Z"/><path class="cls-1" d="M646.83,172.29v23.77q0,4.45,1.33,6c.89,1,3,1.5,6.26,1.5,1.52,0,3.27-.07,5.27-.22v12.3a71.11,71.11,0,0,1-10.41,1.23q-10.37,0-14.7-4t-4.34-14.4V172.29h-8.91V159.37h9.85l1.34-16.59,14.31-1.12v17.71h12.08v12.92Z"/><path class="cls-1" d="M718.26,215.6H702.17a40,40,0,0,1-.78-8.79q-4.21,6-8.42,8a22.24,22.24,0,0,1-9.53,2q-7.91,0-12.76-4.28A14.61,14.61,0,0,1,665.81,201a17.78,17.78,0,0,1,2.84-9.74q2.83-4.46,9.12-7t22.9-3.76v-3.23q0-8.18-8.16-8.18-8.71,0-9.71,8.18l-15.31-1.45q1.5-9.57,9.07-13.58a36.11,36.11,0,0,1,17.15-4,42.27,42.27,0,0,1,10.8,1.34,18,18,0,0,1,7.91,4,14,14,0,0,1,3.84,5.65q1,3,1,10.38v25.5Q717.26,212.43,718.26,215.6Zm-17.59-26.94q-17.37,1.72-17.37,10.52a7.58,7.58,0,0,0,1.83,5.09,6.49,6.49,0,0,0,5.22,2.15,9.14,9.14,0,0,0,7.35-3.65,13.77,13.77,0,0,0,3-9Z"/><path class="cls-2" d="M813.23,139.6v76H795.74V184.26H772V215.6H754.54v-76H772v29.62h23.72V139.6Z"/><path class="cls-2" d="M846.41,185.48V215.6H828.48v-76h33.41q9.24,0,14.84,2.15a19.07,19.07,0,0,1,9.27,7.87,23.11,23.11,0,0,1,3.67,12.74q0,13.69-13.19,19.64l14,33.6H870.83l-11.67-30.12Zm0-32.35v19.38h10.91a28.76,28.76,0,0,0,7.77-.75,8.6,8.6,0,0,0,4.31-3.34,9.76,9.76,0,0,0,1.9-5.93,9.13,9.13,0,0,0-1.9-5.68,7.77,7.77,0,0,0-4.12-3.09,38.71,38.71,0,0,0-8.35-.59Z"/><path class="cls-2" d="M215.89,92.49a15.1,15.1,0,0,1-15.37,15.43,15.37,15.37,0,0,1-14.86-15.31,15.05,15.05,0,0,1,15.49-15.32A14.88,14.88,0,0,1,215.89,92.49Z"/><path class="cls-2" d="M202.58,293.85c-8.33.09-15.75-7.17-15.75-15.43,0-8,7-15,15.15-15.15a15.14,15.14,0,0,1,15.52,15.3A15.42,15.42,0,0,1,202.58,293.85Z"/><path class="cls-2" d="M240.93,263.57c3.25,4.86,5,11,6.18,17.32,1.14,6-1.09,10.56-7,11.14-6.29.63-7.64-4.3-7.91-9.73-.55-11.46-9.57-22.7-21.1-26.66-12.34-4.23-25.74-1.08-33,7.41-5,5.85-8.63,12.25-8.42,20.28.15,6.13-3.1,9.45-8.39,9-5.56-.46-6.81-5.39-6.45-10.43a46.08,46.08,0,0,1,37.25-42.13C210,236.18,230.38,246,240.93,263.57Z"/><path class="cls-2" d="M239.55,108.59c3.18-4.75,4.86-10.78,6-17,1.1-5.84-1.1-10.36-6.92-10.95-6.19-.64-7.5,4.2-7.74,9.51-.52,11.25-9.35,22.24-20.68,26.09-12.14,4.11-25.33,1-32.46-7.37-4.92-5.76-8.54-12-8.36-19.92.14-6-3.07-9.28-8.28-8.87-5.48.43-6.68,5.27-6.31,10.21a45.61,45.61,0,0,0,36.78,41.44C209.16,135.36,229.23,125.84,239.55,108.59Z"/><path class="cls-1" d="M114.3,189.23c-5.62-.26-11.54,1.45-17.33,3.67-5.47,2.1-8.14,6.36-5.68,11.69,2.61,5.67,7.35,4.28,11.94,1.71,9.71-5.44,23.45-3.56,32.45,4.21,9.64,8.32,13.72,21.34,10.33,31.86-2.33,7.25-5.77,13.66-12.49,17.63-5.12,3-6.23,7.5-3.23,11.78,3.14,4.5,7.82,3,11.79.11,16.51-12.07,23-33.6,16.11-53.41C152.27,201.47,134.05,189.13,114.3,189.23Z"/></svg>