<svg id="Layer_1" data-name="Layer 1" xmlns="http://www.w3.org/2000/svg" viewBox="0 0 1000 380.16"><defs><style>.cls-1{fill:#231f20;}</style></defs><path class="cls-1" d="M283.79,187.14c-21.25,0-38.63-13.17-45.69-34.5-5.75-17.36,2-39.53,17.87-51a37.55,37.55,0,0,1,3.23-2.06c4.24-2.49,8.7-3.06,11.46,1.56s1.19,8.86-3.75,11.5c-10.79,5.77-15.4,15.11-15.78,27-.82,25.41,28.88,41.48,47.61,28.81,4.05-2.75,8.76-3.28,11.5,1.28,3,5,.79,9.43-4.26,12.09A45.1,45.1,0,0,1,283.79,187.14Z"/><path class="cls-1" d="M155.6,138.88c2.05,28.43-29.53,55.61-63.2,44-5.78-2-10.2-5-7.7-11.59s7.81-4.89,12.88-2.73c15.46,6.58,33.48-.52,41.1-16.95,6-13,2.53-32.43-12.12-40.22-4.73-2.51-8.54-5.93-5-11.55s8.9-4.36,13.39-1C148.24,108.63,156.42,121.26,155.6,138.88Z"/><path class="cls-1" d="M286.71,194.75c5.83-.27,12,1.5,18,3.81,5.69,2.18,8.47,6.61,5.91,12.15-2.72,5.89-7.64,4.45-12.41,1.78-10.1-5.65-24.38-3.7-33.73,4.37-10,8.65-14.26,22.18-10.74,33.12,2.43,7.53,6,14.19,13,18.31,5.33,3.14,6.48,7.8,3.37,12.25-3.27,4.67-8.14,3.13-12.26.11-17.16-12.54-23.89-34.91-16.74-55.5C247.24,207.46,266.17,194.64,286.71,194.75Z"/><path class="cls-1" d="M279.8,127a16.15,16.15,0,0,1,16.28,15.84,16.46,16.46,0,0,1-16.19,16c-8,0-15.85-7.56-16.2-15.57S271.34,127.08,279.8,127Z"/><path class="cls-1" d="M113.58,254.18c-8.65.1-16.36-7.44-16.36-16,0-8.34,7.27-15.62,15.75-15.75a15.75,15.75,0,0,1,16.13,15.9A16,16,0,0,1,113.58,254.18Z"/><path class="cls-1" d="M128.09,141.14a15.69,15.69,0,0,1-16,16,16,16,0,0,1-15.44-15.91,15.62,15.62,0,0,1,16.09-15.92A15.45,15.45,0,0,1,128.09,141.14Z"/><path class="cls-1" d="M266.4,238.78c-1.56-7.84,7.12-15.62,15.25-15.69A15.82,15.82,0,0,1,297.4,239.3a15.37,15.37,0,0,1-15.51,15.54C272.86,255,266.35,248.2,266.4,238.78Z"/><path class="cls-1" d="M414.73,142.35V158H395.17v63.36H376.42V158H356.75V142.35Z"/><path class="cls-1" d="M466.52,221.33H449.8a41.6,41.6,0,0,1-.81-9.14q-4.39,6.26-8.76,8.31a23.1,23.1,0,0,1-9.91,2.05q-8.2,0-13.25-4.46t-5.06-12A18.45,18.45,0,0,1,415,196q2.94-4.63,9.47-7.26t23.8-3.91v-3.35q0-8.52-8.48-8.51-9,0-10.09,8.51L413.75,180q1.56-9.94,9.43-14.12A37.46,37.46,0,0,1,441,161.68a44.19,44.19,0,0,1,11.23,1.38,18.74,18.74,0,0,1,8.21,4.17,14.58,14.58,0,0,1,4,5.87q1,3.1,1,10.8v26.5C465.48,215.49,465.83,219.14,466.52,221.33Zm-18.29-28q-18,1.78-18.05,10.93a7.89,7.89,0,0,0,1.9,5.3,6.77,6.77,0,0,0,5.43,2.23,9.52,9.52,0,0,0,7.64-3.79,14.33,14.33,0,0,0,3.08-9.35Z"/><path class="cls-1" d="M479.71,221.33v-79H497v79Z"/><path class="cls-1" d="M562.11,221.33H545.39a41.6,41.6,0,0,1-.81-9.14q-4.4,6.26-8.75,8.31a23.13,23.13,0,0,1-9.91,2.05q-8.2,0-13.26-4.46t-5.06-12A18.54,18.54,0,0,1,510.55,196q2.94-4.63,9.48-7.26t23.8-3.91v-3.35q0-8.52-8.48-8.51-9.06,0-10.1,8.51L509.34,180q1.56-9.94,9.43-14.12a37.48,37.48,0,0,1,17.82-4.16,44.13,44.13,0,0,1,11.23,1.38,18.84,18.84,0,0,1,8.22,4.17,14.55,14.55,0,0,1,4,5.87q1,3.1,1,10.8v26.5C561.07,215.49,561.42,219.14,562.11,221.33Zm-18.28-28q-18.06,1.78-18.06,10.93a7.9,7.9,0,0,0,1.91,5.3,6.75,6.75,0,0,0,5.42,2.23,9.5,9.5,0,0,0,7.64-3.79,14.33,14.33,0,0,0,3.09-9.35Z"/><path class="cls-1" d="M626.11,221.33H608.87V188.52a47.83,47.83,0,0,0-.46-8.15,6.66,6.66,0,0,0-6.78-5.27q-9.07,0-9.08,13.42v32.81H575.31V162.89h16v9.9q4-7.06,7.87-9.09a17.83,17.83,0,0,1,8.39-2q8.32,0,13.42,4.48t5.09,17.62Z"/><path class="cls-1" d="M659.79,176.31V201c0,3.09.46,5.15,1.38,6.2s3.1,1.56,6.51,1.56c1.58,0,3.4-.08,5.48-.23v12.78a74.19,74.19,0,0,1-10.82,1.28q-10.77,0-15.28-4.14t-4.51-15v-27.2h-9.26V162.89h10.24l1.39-17.24,14.87-1.16v18.4h12.56v13.42Z"/><path class="cls-1" d="M734,221.33H717.31a41.6,41.6,0,0,1-.81-9.14q-4.39,6.26-8.75,8.31a23.13,23.13,0,0,1-9.91,2.05q-8.21,0-13.26-4.46t-5.06-12a18.45,18.45,0,0,1,3-10.13q2.94-4.63,9.47-7.26t23.81-3.91v-3.35q0-8.52-8.48-8.51-9.06,0-10.1,8.51L681.26,180q1.56-9.94,9.43-14.12a37.48,37.48,0,0,1,17.82-4.16,44.13,44.13,0,0,1,11.23,1.38,18.84,18.84,0,0,1,8.22,4.17,14.65,14.65,0,0,1,4,5.87q1,3.1,1,10.8v26.5C733,215.49,733.34,219.14,734,221.33Zm-18.28-28q-18.06,1.78-18.06,10.93a7.9,7.9,0,0,0,1.91,5.3,6.75,6.75,0,0,0,5.42,2.23,9.5,9.5,0,0,0,7.64-3.79,14.33,14.33,0,0,0,3.09-9.35Z"/><path class="cls-1" d="M832.73,142.35v79H814.56V188.76H789.91v32.57H771.74v-79h18.17v30.78h24.65V142.35Z"/><path class="cls-1" d="M867.21,190v31.3H848.58v-79H883.3q9.62,0,15.42,2.23a19.81,19.81,0,0,1,9.64,8.18A24.06,24.06,0,0,1,912.18,166q0,14.22-13.72,20.41L913,221.33H892.6L880.47,190Zm0-33.62v20.14h11.35a29.91,29.91,0,0,0,8.07-.78,8.92,8.92,0,0,0,4.48-3.48,10.16,10.16,0,0,0,2-6.16,9.53,9.53,0,0,0-2-5.9,8.06,8.06,0,0,0-4.28-3.21,40.08,40.08,0,0,0-8.68-.61Z"/><path class="cls-1" d="M211.91,93.38a15.69,15.69,0,0,1-16,16A16,16,0,0,1,180.5,93.51a15.63,15.63,0,0,1,16.09-15.92A15.45,15.45,0,0,1,211.91,93.38Z"/><path class="cls-1" d="M198.08,302.65c-8.66.1-16.36-7.44-16.37-16,0-8.34,7.27-15.61,15.75-15.75a15.75,15.75,0,0,1,16.13,15.9A16,16,0,0,1,198.08,302.65Z"/><path class="cls-1" d="M237.94,271.19c3.37,5.05,5.17,11.45,6.42,18,1.19,6.19-1.13,11-7.27,11.58-6.53.65-7.93-4.48-8.21-10.11-.58-11.92-9.95-23.6-21.93-27.71-12.83-4.4-26.75-1.13-34.25,7.7-5.18,6.08-9,12.73-8.76,21.08.16,6.37-3.22,9.82-8.72,9.37-5.78-.48-7.07-5.61-6.7-10.84a47.89,47.89,0,0,1,38.71-43.79C205.75,242.72,227,252.88,237.94,271.19Z"/><path class="cls-1" d="M236.51,110.12c3.3-4.94,5.05-11.21,6.26-17.63,1.15-6.07-1.14-10.77-7.19-11.39-6.43-.65-7.79,4.37-8.05,9.9-.53,11.69-9.71,23.11-21.49,27.1-12.61,4.28-26.32,1-33.74-7.65-5.11-6-8.87-12.52-8.68-20.71.14-6.24-3.2-9.64-8.61-9.21-5.69.44-6.94,5.47-6.56,10.61a47.41,47.41,0,0,0,38.23,43.07C204.92,137.94,225.77,128,236.51,110.12Z"/><path class="cls-1" d="M106.33,193.93c-5.84-.27-12,1.5-18,3.81-5.68,2.18-8.46,6.61-5.91,12.15,2.72,5.89,7.64,4.45,12.42,1.77C104.92,206,119.2,208,128.55,216c10,8.65,14.26,22.18,10.74,33.11-2.42,7.54-6,14.2-13,18.32-5.32,3.14-6.48,7.8-3.36,12.25,3.27,4.67,8.13,3.12,12.26.11,17.15-12.54,23.89-34.91,16.73-55.5C145.8,206.64,126.86,193.82,106.33,193.93Z"/></svg>