<svg id="Layer_1" data-name="Layer 1" xmlns="http://www.w3.org/2000/svg" viewBox="0 0 1000 380.16"><defs><style>.cls-1{fill:#fff;}</style></defs><path class="cls-1" d="M281.62,187.11c-21.46-.05-39-13.31-46.15-34.85-5.8-17.53,2-39.93,18.05-51.54,1-.75,2.15-1.43,3.26-2.08,4.28-2.51,8.79-3.09,11.58,1.57s1.2,9-3.79,11.62c-10.9,5.83-15.55,15.27-15.94,27.27-.83,25.67,29.17,41.9,48.09,29.1,4.09-2.77,8.85-3.31,11.62,1.29,3,5,.79,9.53-4.31,12.22A45.49,45.49,0,0,1,281.62,187.11Z"/><path class="cls-1" d="M152.15,138.37c2.06,28.71-29.83,56.16-63.85,44.41-5.83-2-10.29-5-7.77-11.7s7.89-4.94,13-2.76c15.61,6.65,33.82-.52,41.51-17.12,6.09-13.16,2.56-32.75-12.24-40.62-4.77-2.54-8.63-6-5-11.66s9-4.41,13.52-1C144.71,107.81,153,120.57,152.15,138.37Z"/><path class="cls-1" d="M284.56,194.79c5.9-.27,12.12,1.52,18.19,3.85,5.75,2.21,8.55,6.68,6,12.28-2.75,6-7.71,4.49-12.54,1.79C286,207,271.56,209,262.12,217.13c-10.12,8.74-14.41,22.41-10.85,33.45,2.45,7.61,6.06,14.33,13.11,18.5,5.38,3.17,6.55,7.87,3.4,12.37-3.3,4.72-8.22,3.15-12.38.11-17.33-12.67-24.13-35.26-16.91-56.06C244.7,207.64,263.83,194.68,284.56,194.79Z"/><path class="cls-1" d="M277.59,126.36a16.3,16.3,0,0,1,16.44,16,16.62,16.62,0,0,1-16.35,16.22c-8.12-.06-16-7.64-16.36-15.73S269,126.45,277.59,126.36Z"/><path class="cls-1" d="M109.71,254.82c-8.75.11-16.53-7.51-16.53-16.19,0-8.42,7.34-15.77,15.9-15.91a15.9,15.9,0,0,1,16.29,16.06A16.18,16.18,0,0,1,109.71,254.82Z"/><path class="cls-1" d="M124.36,140.64a15.85,15.85,0,0,1-16.13,16.21,16.14,16.14,0,0,1-15.6-16.07,15.78,15.78,0,0,1,16.25-16.08A15.61,15.61,0,0,1,124.36,140.64Z"/><path class="cls-1" d="M264.05,239.27c-1.57-7.92,7.2-15.78,15.41-15.85a16,16,0,0,1,15.9,16.37,15.52,15.52,0,0,1-15.66,15.7C270.58,255.6,264,248.79,264.05,239.27Z"/><path class="cls-1" d="M413.87,141.87v15.78H394.12v64H375.18v-64H355.31V141.87Z"/><path class="cls-1" d="M466.18,221.65H449.29a42.45,42.45,0,0,1-.82-9.24q-4.43,6.32-8.84,8.39a23.24,23.24,0,0,1-10,2.08q-8.28,0-13.39-4.5t-5.1-12.1a18.72,18.72,0,0,1,3-10.23q3-4.68,9.57-7.34t24-3.94v-3.39q0-8.59-8.56-8.59-9.15,0-10.2,8.59l-16.07-1.52q1.58-10.05,9.53-14.26a37.83,37.83,0,0,1,18-4.21,44.6,44.6,0,0,1,11.34,1.4,19,19,0,0,1,8.3,4.21,14.74,14.74,0,0,1,4,5.93q1.05,3.13,1.05,10.9V210.6Q465.13,218.33,466.18,221.65Zm-18.47-28.29q-18.22,1.81-18.23,11a8,8,0,0,0,1.92,5.35,6.81,6.81,0,0,0,5.48,2.25,9.59,9.59,0,0,0,7.72-3.83,14.5,14.5,0,0,0,3.11-9.44Z"/><path class="cls-1" d="M479.51,221.65V141.87h17.42v79.78Z"/><path class="cls-1" d="M562.74,221.65H545.85a41.83,41.83,0,0,1-.82-9.24q-4.44,6.32-8.84,8.39a23.3,23.3,0,0,1-10,2.08q-8.29,0-13.39-4.5t-5.11-12.1a18.65,18.65,0,0,1,3-10.23q3-4.68,9.57-7.34t24-3.94v-3.39q0-8.59-8.57-8.59-9.15,0-10.19,8.59l-16.08-1.52Q511,169.81,519,165.6a37.83,37.83,0,0,1,18-4.21,44.6,44.6,0,0,1,11.34,1.4,19,19,0,0,1,8.3,4.21,14.64,14.64,0,0,1,4,5.93q1.05,3.13,1,10.9V210.6Q561.68,218.33,562.74,221.65Zm-18.47-28.29q-18.24,1.81-18.24,11a7.94,7.94,0,0,0,1.93,5.35,6.79,6.79,0,0,0,5.47,2.25,9.59,9.59,0,0,0,7.72-3.83,14.45,14.45,0,0,0,3.12-9.44Z"/><path class="cls-1" d="M627.38,221.65H610V188.51a46.54,46.54,0,0,0-.47-8.24,6.64,6.64,0,0,0-2.28-3.77,6.75,6.75,0,0,0-4.55-1.55q-9.18,0-9.18,13.56v33.14H576.06v-59h16.19v10q4-7.12,8-9.17a18,18,0,0,1,8.48-2.05q8.42,0,13.56,4.53t5.14,17.8Z"/><path class="cls-1" d="M661.39,176.18v24.95q0,4.68,1.4,6.26t6.58,1.58c1.59,0,3.43-.08,5.53-.24v12.92A74.26,74.26,0,0,1,664,222.93q-10.87,0-15.43-4.17T644,203.65V176.18h-9.35V162.62H645l1.4-17.42,15-1.17v18.59h12.69v13.56Z"/><path class="cls-1" d="M736.38,221.65H719.49a41.83,41.83,0,0,1-.82-9.24q-4.44,6.32-8.84,8.39a23.27,23.27,0,0,1-10,2.08q-8.28,0-13.39-4.5t-5.1-12.1a18.72,18.72,0,0,1,3-10.23q3-4.68,9.57-7.34t24-3.94v-3.39q0-8.59-8.56-8.59-9.15,0-10.2,8.59l-16.07-1.52q1.57-10.05,9.53-14.26a37.77,37.77,0,0,1,18-4.21,44.6,44.6,0,0,1,11.34,1.4,18.94,18.94,0,0,1,8.29,4.21,14.67,14.67,0,0,1,4,5.93q1.05,3.13,1.05,10.9V210.6Q735.33,218.33,736.38,221.65Zm-18.47-28.29q-18.23,1.81-18.23,11a8,8,0,0,0,1.92,5.35,6.81,6.81,0,0,0,5.48,2.25,9.61,9.61,0,0,0,7.72-3.83,14.5,14.5,0,0,0,3.11-9.44Z"/><path class="cls-1" d="M836.07,141.87v79.78H817.72V188.74h-24.9v32.91H774.46V141.87h18.36V173h24.9V141.87Z"/><path class="cls-1" d="M870.9,190v31.62H852.08V141.87h35.07q9.71,0,15.58,2.25a20,20,0,0,1,9.73,8.26,24.28,24.28,0,0,1,3.86,13.38q0,14.37-13.86,20.62l14.73,35.27H896.54L884.29,190Zm0-34v20.34h11.46a29.94,29.94,0,0,0,8.15-.79,8.92,8.92,0,0,0,4.53-3.5,10.34,10.34,0,0,0,2-6.23,9.66,9.66,0,0,0-2-6,8.2,8.2,0,0,0-4.32-3.24,40.76,40.76,0,0,0-8.77-.62Z"/><path class="cls-1" d="M209,92.41a15.85,15.85,0,0,1-16.13,16.2,16.14,16.14,0,0,1-15.6-16.07,15.78,15.78,0,0,1,16.26-16.08A15.61,15.61,0,0,1,209,92.41Z"/><path class="cls-1" d="M195.05,303.78c-8.75.1-16.53-7.52-16.53-16.19,0-8.42,7.34-15.77,15.9-15.91a15.91,15.91,0,0,1,16.3,16.06A16.19,16.19,0,0,1,195.05,303.78Z"/><path class="cls-1" d="M235.31,272c3.41,5.1,5.22,11.57,6.48,18.18,1.2,6.26-1.14,11.08-7.34,11.7-6.6.66-8-4.52-8.29-10.21-.59-12-10-23.84-22.15-28-13-4.45-27-1.14-34.6,7.77-5.23,6.15-9.06,12.86-8.85,21.3.17,6.43-3.24,9.92-8.8,9.46-5.84-.48-7.14-5.66-6.77-10.95A48.38,48.38,0,0,1,184.09,247C202.79,243.25,224.23,253.51,235.31,272Z"/><path class="cls-1" d="M233.86,109.32c3.34-5,5.11-11.33,6.33-17.81,1.16-6.13-1.16-10.88-7.26-11.5-6.5-.67-7.88,4.41-8.13,10-.54,11.81-9.82,23.35-21.71,27.38-12.74,4.32-26.59,1-34.07-7.73-5.17-6.05-9-12.64-8.78-20.91.15-6.31-3.22-9.74-8.69-9.31-5.75.45-7,5.53-6.63,10.71a47.9,47.9,0,0,0,38.62,43.51C202,137.42,223,127.42,233.86,109.32Z"/><path class="cls-1" d="M102.38,194c-5.9-.27-12.12,1.52-18.19,3.85-5.74,2.21-8.55,6.69-6,12.28,2.75,5.95,7.72,4.49,12.54,1.79,10.2-5.7,24.62-3.73,34.07,4.42,10.11,8.74,14.4,22.41,10.84,33.45-2.45,7.61-6.06,14.34-13.11,18.5-5.37,3.17-6.54,7.87-3.4,12.37,3.31,4.72,8.22,3.16,12.38.11,17.33-12.67,24.14-35.26,16.91-56.06C142.24,206.81,123.12,193.86,102.38,194Z"/></svg>